<?xml version="1.0" encoding="utf-8"?>
<!-- Generator: Adobe Illustrator 23.0.0, SVG Export Plug-In . SVG Version: 6.00 Build 0)  -->
<svg version="1.1" id="Camada_1" xmlns="http://www.w3.org/2000/svg" xmlns:xlink="http://www.w3.org/1999/xlink" x="0px" y="0px"
	 viewBox="0 0 1000 139.8" style="enable-background:new 0 0 1000 139.8;" xml:space="preserve">
<style type="text/css">
	.st0{fill:#0062E4;}
</style>
<g>
	<path class="st0" d="M135.8,69.7c0-38.6,31.8-69.7,71.7-69.7c40.1,0,72,31.1,72,69.7c0,38.3-31.8,70-72,70
		C167.7,139.8,135.8,107.8,135.8,69.7z M245.3,69.7c0-19.2-16.9-36.2-37.7-36.2c-20.6,0-37.2,17-37.2,36.2
		c0,19.4,16.9,36.5,37.2,36.5C228.4,106.2,245.3,89.2,245.3,69.7z"/>
	<path class="st0" d="M856.3,70.8C856.3,28.5,891,0,922.4,0c21.5,0,33.8,6.4,42.2,18.9l3.2-16.5h32.2v134.7h-32.2l-4-13.8
		c-9.4,10.1-21.2,16.5-41.1,16.5C891.2,139.8,856.3,112.6,856.3,70.8z M965.9,70.5c0-20.5-16.9-37-37.9-37
		c-20.7,0-37.3,16.8-37.3,37.5c0,18.6,16.9,35.4,37.3,35.4C949.2,106.2,965.9,89.5,965.9,70.5z"/>
	<path class="st0" d="M817.7,18.8V3.4h-34.2v132.4h34.2V64.4c0-21.5,10.4-32.7,29-32.7c1.3,0,2.4,0,3.4,0.3L856.3,0
		C838.5,0.3,825.8,6.3,817.7,18.8z"/>
	<path class="st0" d="M468.3,18.8V3.4h-35.2l0.3,132.4h35.3l-0.3-71.4c0-21.5,10.8-32.7,29.6-32.7c1.3,0,2.4,0,3.5,0.3L507.9,0
		C489.6,0.3,476.4,6.3,468.3,18.8z"/>
	<path class="st0" d="M293.3,84.4V2h34.4v78.2c0,17.3,9.5,27.4,26,27.4c18.4,0,29.2-11.4,29.2-33.2V2h34.4v134.6h-34.4v-15.7
		c-8.1,12.8-21.3,18.9-39.4,18.9C312.5,140,293.3,117.4,293.3,84.4z"/>
	<path class="st0" d="M631.9,69.6c0-37.7,27.2-69.9,70-69.6c39.8,0,67.8,31.9,67.8,69.1c0,3.7-0.3,7.7-0.8,11.2L666.1,80
		c4,16.2,17.4,27.6,37.4,27.9c12.3,0,25.4-4.5,33.4-14.6l23.8,19.1c-12.3,17.3-33.9,27.4-56.9,27.4
		C663.1,139.2,631.9,108.9,631.9,69.6z M734.7,55.8c-1.9-13.6-16.3-24.2-32.8-24.2c-16.3,0-29.4,9.6-34.5,23.9L734.7,55.8z"/>
	<path class="st0" d="M507.9,108l31-16.1c5.1,11.1,15.5,17.5,30,17.5c13.4,0,18.5-4.2,18.5-10.1c0-21.4-73.9-8.5-73.9-57.7
		c0-27.3,24.1-41.6,53.8-41.6c22.5,0,42.5,9.8,53.5,28.3L590,44.5c-4.5-9-13.1-14-24.1-14c-10.7,0-15.8,3.7-15.8,9.8
		c0,20.9,73.9,7.7,73.9,57.7c0,25.9-21.4,41.8-55.9,41.8C538.7,139.5,518,130,507.9,108z"/>
	<path class="st0" d="M0,69C0,30.7,31.6,0,71.1,0c25.5,0,47.5,12.6,60.2,31.5l-29.7,17.1c-6.9-9.4-17.8-15.7-30.5-15.7
		c-20.4,0-36.9,16.8-36.9,36c0,19.2,16.7,36,36.9,36c13.3,0,24.9-6.8,31.3-17.1l29.5,17.3c-12.5,19.7-35,32.8-60.8,32.8
		C31.6,138.1,0,106.6,0,69z"/>
</g>
</svg>
